<svg version="1.1" xmlns="http://www.w3.org/2000/svg" xmlns:xlink="http://www.w3.org/1999/xlink" width="36" height="36" viewBox="0,0,36,36"><g transform="translate(-222,-162)"><g data-paper-data="{&quot;isPaintingLayer&quot;:true}" fill-rule="nonzero" stroke="none" stroke-width="1" stroke-linecap="butt" stroke-linejoin="miter" stroke-miterlimit="10" stroke-dasharray="" stroke-dashoffset="0" style="mix-blend-mode: normal"><path d="M222,180c0,-9.94113 8.05887,-18 18,-18c9.94113,0 18,8.05887 18,18c0,9.94113 -8.05887,18 -18,18c-9.94113,0 -18,-8.05887 -18,-18z" fill="#231f20" opacity="0.15"/><g fill="#ffffff" opacity="0.75"><path d="M236,178c-0.55228,0 -1,-0.44772 -1,-1v0c0,-0.55228 0.44772,-1 1,-1h8c0.55228,0 1,0.44772 1,1v0c0,0.55228 -0.44772,1 -1,1z"/><path d="M236,184c-0.55228,0 -1,-0.44772 -1,-1v0c0,-0.55228 0.44772,-1 1,-1h8c0.55228,0 1,0.44772 1,1v0c0,0.55228 -0.44772,1 -1,1z"/></g></g></g></svg>